name C:\Users\u0101727\Documents\MyRepositories\upper-imu-dc\Results\main_mocap_tracking\Case_10\FLX01_angularVelocities_groundFrame.mot
datacolumns 4
datarows 58
range 2.01000000 2.58000000
endheader 
time	radius_imu_x	radius_imu_y	radius_imu_z	
          2.01000000	         -0.32120121	         -0.28017430	          1.12132720	
          2.02000000	         -0.47453696	         -0.35003221	          1.07267589	
          2.03000000	         -0.65422761	         -0.43685034	          1.01499379	
          2.04000000	         -0.82973451	         -0.52546051	          0.95641874	
          2.05000000	         -0.97284194	         -0.60006642	          0.90505160	
          2.06000000	         -1.06504986	         -0.64866477	          0.86679189	
          2.07000000	         -1.10134655	         -0.66604078	          0.84400655	
          2.08000000	         -1.08859446	         -0.65386384	          0.83567423	
          2.09000000	         -1.03928374	         -0.61776117	          0.83893066	
          2.10000000	         -0.96400655	         -0.56300229	          0.85112246	
          2.11000000	         -0.86756102	         -0.49184912	          0.87094495	
          2.12000000	         -0.75161331	         -0.40490075	          0.89775843	
          2.13000000	         -0.62158381	         -0.30553491	          0.92970068	
          2.14000000	         -0.49212104	         -0.20397360	          0.96221241	
          2.15000000	         -0.38720729	         -0.11802096	          0.98812391	
          2.16000000	         -0.33453275	         -0.06964697	          0.99937907	
          2.17000000	         -0.35622300	         -0.07834334	          0.98974018	
          2.18000000	         -0.45964212	         -0.15365812	          0.95737689	
          2.19000000	         -0.63292958	         -0.29050862	          0.90603958	
          2.20000000	         -0.84805042	         -0.46999777	          0.84409219	
          2.21000000	         -1.06944407	         -0.66505056	          0.78199587	
          2.22000000	         -1.26330590	         -0.84744389	          0.72964683	
          2.23000000	         -1.40377165	         -0.99319446	          0.69458702	
          2.24000000	         -1.47524612	         -1.08530423	          0.68128354	
          2.25000000	         -1.47195011	         -1.11433106	          0.69120011	
          2.26000000	         -1.39609988	         -1.07768094	          0.72330484	
          2.27000000	         -1.25573645	         -0.97836187	          0.77474028	
          2.28000000	         -1.06274022	         -0.82366090	          0.84147222	
          2.29000000	         -0.83126100	         -0.62400551	          0.91881052	
          2.30000000	         -0.57671573	         -0.39222202	          1.00173844	
          2.31000000	         -0.31547840	         -0.14339091	          1.08501505	
          2.32000000	         -0.06513742	          0.10473200	          1.16308813	
          2.33000000	          0.15520957	          0.33119369	          1.22996524	
          2.34000000	          0.32542940	          0.51207416	          1.27927653	
          2.35000000	          0.42633254	          0.62241980	          1.30477381	
          2.36000000	          0.44337652	          0.64043935	          1.30139934	
          2.37000000	          0.37141727	          0.55356973	          1.26679928	
          2.38000000	          0.21868341	          0.36450299	          1.20275561	
          2.39000000	          0.00732695	          0.09380862	          1.11566627	
          2.40000000	         -0.23095717	         -0.22345327	          1.01547040	
          2.41000000	         -0.46254744	         -0.54602272	          0.91339632	
          2.42000000	         -0.65907739	         -0.83554571	          0.81961419	
          2.43000000	         -0.80172941	         -1.06313183	          0.74161745	
          2.44000000	         -0.88239461	         -1.21239533	          0.68353374	
          2.45000000	         -0.90250962	         -1.27941807	          0.64623187	
          2.46000000	         -0.87056083	         -1.27055142	          0.62798626	
          2.47000000	         -0.79921860	         -1.19920814	          0.62539729	
          2.48000000	         -0.70283185	         -1.08270640	          0.63426690	
          2.49000000	         -0.59553281	         -0.93965619	          0.65028212	
          2.50000000	         -0.48983941	         -0.78784611	          0.66951990	
          2.51000000	         -0.39564892	         -0.64256083	          0.68879347	
          2.52000000	         -0.31962992	         -0.51537619	          0.70584781	
          2.53000000	         -0.26505485	         -0.41351868	          0.71940959	
          2.54000000	         -0.23207593	         -0.33985399	          0.72909061	
          2.55000000	         -0.21836561	         -0.29346570	          0.73516816	
          2.56000000	         -0.21997463	         -0.27066849	          0.73829269	
          2.57000000	         -0.23222916	         -0.26621564	          0.73919478	
          2.58000000	         -0.25051699	         -0.27445669	          0.73846365	
